<?xml version="1.0" standalone="no"?>
<!DOCTYPE svg PUBLIC "-//W3C//DTD SVG 20010904//EN"
 "http://www.w3.org/TR/2001/REC-SVG-20010904/DTD/svg10.dtd">
<svg version="1.0" xmlns="http://www.w3.org/2000/svg"
 width="74.000000pt" height="74.000000pt" viewBox="0 0 74.000000 74.000000"
 preserveAspectRatio="xMidYMid meet">
<metadata>
Created by potrace 1.11, written by Peter Selinger 2001-2013
</metadata>
<g transform="translate(0.000000,74.000000) scale(0.100000,-0.100000)"
fill="#000000" stroke="none">
<path d="M300 727 c-14 -6 -27 -14 -30 -17 -3 -4 -20 -12 -37 -19 -18 -8 -33
-18 -33 -23 0 -5 -4 -6 -10 -3 -5 3 -10 1 -10 -4 0 -6 -4 -10 -8 -8 -5 1 -31
-13 -59 -32 -50 -34 -89 -82 -76 -95 3 -3 1 -6 -5 -6 -9 0 -12 -43 -12 -151 0
-138 2 -153 21 -181 25 -35 63 -72 76 -75 10 -2 156 -84 163 -92 14 -16 164
-26 155 -10 -4 5 0 9 7 9 7 0 29 10 48 22 19 12 37 22 40 23 6 0 70 38 117 69
18 12 33 25 33 30 0 6 10 21 23 34 12 14 15 21 7 17 -13 -8 -13 -6 -2 7 10 12
12 50 9 155 -5 152 -7 163 -19 163 -4 0 -8 6 -8 13 0 17 -60 72 -88 82 -12 3
-22 11 -22 16 0 6 -4 8 -9 4 -5 -3 -12 -1 -16 4 -3 6 -37 26 -77 45 -75 38
-130 45 -178 23z m184 -70 c3 4 6 -1 6 -10 0 -10 8 -17 20 -17 11 0 20 -5 20
-11 0 -5 5 -7 10 -4 6 3 10 1 10 -6 0 -7 3 -10 6 -6 6 5 15 0 49 -31 8 -7 15
-10 15 -5 0 4 10 -8 22 -27 12 -19 27 -38 33 -42 6 -5 5 -8 -3 -8 -9 0 -10 -6
-5 -17 5 -10 7 -61 6 -113 -4 -124 -4 -123 -16 -137 -5 -7 -6 -13 -3 -13 4 0
-9 -14 -27 -30 -19 -17 -40 -30 -46 -30 -6 0 -14 -7 -17 -15 -4 -8 -11 -12
-16 -9 -6 4 -13 2 -17 -3 -10 -15 -102 -63 -111 -58 -4 3 -10 -2 -14 -10 -3
-8 -10 -15 -16 -15 -6 0 -8 5 -4 11 5 8 2 9 -12 1 -15 -8 -24 -7 -38 6 -12 11
-16 12 -11 3 9 -15 9 -15 -57 26 -21 13 -38 20 -38 17 0 -4 -8 0 -17 8 -10 8
-25 17 -33 20 -24 9 -102 69 -97 74 3 3 0 16 -7 29 -18 34 -14 274 5 286 8 5
10 9 4 9 -15 0 58 60 73 60 6 0 12 3 12 8 0 4 10 12 23 18 12 6 49 26 82 43
39 21 70 31 87 29 16 -3 28 -1 28 3 0 4 20 -3 44 -16 24 -13 47 -21 50 -18z"/>
<path d="M312 508 c-24 -12 -46 -27 -49 -35 -3 -7 -11 -13 -17 -13 -12 0 -16
-12 -17 -53 0 -9 -4 -15 -10 -12 -5 4 -9 -1 -9 -9 0 -9 5 -16 10 -16 6 0 10
-4 10 -10 0 -26 33 -48 68 -44 19 2 38 7 41 11 3 4 13 9 21 11 8 2 22 10 31
18 14 12 18 13 22 2 4 -10 6 -10 6 0 1 10 5 10 21 0 11 -7 20 -16 20 -21 0
-24 -86 -84 -113 -78 -5 1 -7 -9 -5 -21 3 -20 8 -23 43 -21 23 2 43 9 48 18 4
9 12 13 18 10 5 -4 9 -3 9 2 0 4 11 21 25 37 24 28 32 67 19 101 -8 21 -54 43
-79 38 -11 -2 -26 -5 -32 -5 -7 -1 -13 -5 -13 -10 0 -5 -4 -6 -10 -3 -5 3 -10
2 -10 -2 0 -17 -56 -31 -73 -18 -16 11 -15 14 4 39 11 14 34 33 50 42 24 12
28 18 20 33 -6 10 -7 21 -4 25 10 10 1 7 -45 -16z"/>
</g>
</svg>
