<svg xmlns="http://www.w3.org/2000/svg" style="border: 0 !important; clip: rect(0 0 0 0) !important; height: 1px !important; margin: -1px !important; overflow: hidden !important; padding: 0 !important; position: absolute !important; width: 1px !important;" class="root-svg-symbols-element">
    <symbol id="book" viewBox="0 0 32 32">
      <path fill="#fff" d="M28 4v26H7a3 3 0 1 1 0-6h19V0H6C3.8 0 2 1.8 2 4v24c0 2.2 1.8 4 4 4h24V4h-2z"/><path fill="#fff" d="M7.002 26H7a1 1 0 0 0 0 2h18.999v-2H7.002z"/>
    </symbol>
    <symbol id="bubbles" viewBox="0 0 36 32">
      <path fill="#4d5256" d="M15 0c8.284 0 15 5.435 15 12.139s-6.716 12.139-15 12.139c-.796 0-1.576-.051-2.339-.147C9.439 27.34 5.718 27.916 2 28v-.785c2.008-.98 3.625-2.765 3.625-4.804 0-.285-.022-.564-.063-.837C2.17 19.349 0 15.949 0 12.14 0 5.436 6.716.001 15 .001zm16.125 27.209c0 1.748 1.135 3.278 2.875 4.118V32c-3.223-.072-6.181-.566-8.973-3.316-.661.083-1.337.126-2.027.126-2.983 0-5.732-.805-7.925-2.157 4.521-.016 8.789-1.464 12.026-4.084 1.631-1.32 2.919-2.87 3.825-4.605.961-1.84 1.449-3.799 1.449-5.825 0-.326-.014-.651-.039-.974C34.604 13.038 36 15.591 36 18.405c0 3.265-1.88 6.179-4.82 8.086a4.722 4.722 0 0 0-.055.718z"/>
    </symbol>
    <symbol id="cancel-circle" viewBox="0 0 16 16">
      <path fill="#fff" d="M8 0a8 8 0 1 0 0 16A8 8 0 0 0 8 0zm0 14.5a6.5 6.5 0 1 1 0-13 6.5 6.5 0 0 1 0 13z"/><path fill="#fff" d="M10.5 4L8 6.5 5.5 4 4 5.5 6.5 8 4 10.5 5.5 12 8 9.5l2.5 2.5 1.5-1.5L9.5 8 12 5.5z"/>
    </symbol>
    <symbol id="circle-up" viewBox="0 0 32 32">
      <path fill="#5bc9c5" d="M0 16c0 8.837 7.163 16 16 16s16-7.163 16-16S24.837 0 16 0 0 7.163 0 16zm29 0c0 7.18-5.82 13-13 13S3 23.18 3 16 8.82 3 16 3s13 5.82 13 13z"/><path fill="#5bc9c5" d="M22.086 20.914l2.829-2.829-8.914-8.914-8.914 8.914 2.828 2.828 6.086-6.086z"/>
    </symbol>
    <symbol id="heart-selected" viewBox="0 0 16 16">
      <path fill="#fff" d="M11.8 1c-1.682 0-3.129 1.368-3.799 2.797C7.33 2.368 5.883 1 4.201 1a4.202 4.202 0 0 0-4.2 4.2c0 4.716 4.758 5.953 8 10.616 3.065-4.634 8-6.05 8-10.616 0-2.319-1.882-4.2-4.2-4.2z"/>
    </symbol>
    <symbol id="heart" viewBox="0 0 16 16">
      <path fill="#fff" d="M14.597 2.632C12.782.834 9.881.797 8.002 2.488 6.122.796 3.222.834 1.406 2.632a4.709 4.709 0 0 0 0 6.707c.534.53 5.527 5.471 5.527 5.471a1.521 1.521 0 0 0 2.139 0l5.527-5.471a4.708 4.708 0 0 0-.001-6.707zm-.713 6.002l-5.527 5.471a.508.508 0 0 1-.713 0L2.117 8.634a3.721 3.721 0 0 1 0-5.295c1.422-1.407 3.708-1.457 5.205-.111l.678.61.678-.61c1.497-1.346 3.783-1.297 5.205.111a3.722 3.722 0 0 1 .001 5.295zM4.627 3.751a.25.25 0 0 1 0 .5c-.897 0-1.625.728-1.625 1.625a.25.25 0 0 1-.5 0c0-1.173.95-2.123 2.123-2.124l.002-.001z"/>
    </symbol>
    <symbol id="key" viewBox="0 0 16 16">
      <path fill="#fff" d="M11.002 0a5 5 0 0 0-5 5c0 .643.135 1.25.356 1.814L.284 12.888c-.175.176-.284.343-.284.611v1.5c0 .535.465 1 1 1h1.5c.268 0 .438-.107.613-.282l.717-.718h1.171a1 1 0 0 0 1-1v-1h1a1 1 0 0 0 1-1v-1.172l1.184-1.185a4.921 4.921 0 0 0 1.816.357 5 5 0 0 0 0-10zm0 9c-.74 0-1.426-.215-2.021-.566l-.172.171-1.515 1.515a.997.997 0 0 0-.293.707v1.172h-1a1 1 0 0 0-1 1v1H3.83a1 1 0 0 0-.707.293l-.709.709-1.413-.002L1 13.574l5.832-5.822v.001l.734-.734A3.96 3.96 0 0 1 7 4.999a4 4 0 1 1 4.001 4zm2.908-4.88a8.862 8.862 0 0 0-2.027-2.027.482.482 0 0 0-.441-.063 2.21 2.21 0 0 0-1.413 1.414.487.487 0 0 0 .064.44 8.882 8.882 0 0 0 2.027 2.027.485.485 0 0 0 .441.064 2.207 2.207 0 0 0 1.415-1.414.489.489 0 0 0-.064-.442zm-1.5 1.385a8.553 8.553 0 0 1-1.91-1.897 1.74 1.74 0 0 1 1.091-1.111 8.413 8.413 0 0 1 1.908 1.905 1.726 1.726 0 0 1-1.089 1.101z"/>
    </symbol>
    <symbol id="like" viewBox="0 0 16 16">
      <path fill="#fff" d="M14.582 5.236c-.625-.164-2.095-.162-4.244-.219.101-.469.125-.892.125-1.643C10.463 1.58 9.156 0 8 0a1.51 1.51 0 0 0-1.5 1.488c-.011 1.007-.322 2.746-2 3.628a17.44 17.44 0 0 1-.526.261L4 5.399c-.263-.226-.627-.4-1-.4H1.5c-.827 0-1.5.673-1.5 1.5v8c0 .827.673 1.5 1.5 1.5H3c.595 0 1.093-.36 1.334-.864a.14.14 0 0 0 .024.006l.12.031.023.006c.288.072.843.204 2.027.476.254.058 1.596.344 2.986.344h2.733c.833 0 1.434-.32 1.791-.964.005-.01.12-.235.214-.538a1.66 1.66 0 0 0 .011-.88c.537-.369.71-.927.822-1.29.188-.595.132-1.043.001-1.364.302-.285.559-.72.668-1.383a1.879 1.879 0 0 0-.194-1.186c.283-.318.412-.718.427-1.088l.006-.104c.004-.066.007-.106.007-.25 0-.631-.438-1.437-1.418-1.717zM3.5 14.5a.5.5 0 0 1-.5.5H1.5a.5.5 0 0 1-.5-.5v-8a.5.5 0 0 1 .5-.5H3a.5.5 0 0 1 .5.5v8zm11.489-7.232c-.01.247-.114.732-.989.732h-1a.25.25 0 1 0 0 .5h.969c.75 0 .848.622.8.922-.062.373-.237 1.078-1.082 1.078h-1.188a.25.25 0 0 0 0 .5h.985c.844 0 .77.643.649 1.027-.159.505-.257.973-1.321.973h-.816a.25.25 0 0 0 0 .5h.784c.547 0 .572.518.515.703-.063.203-.136.354-.139.361-.151.273-.395.437-.91.437H9.513c-1.373 0-2.735-.312-2.77-.319-2.077-.479-2.187-.515-2.317-.553 0 0-.423-.072-.423-.441L4 6.782c0-.234.149-.447.397-.521.031-.012.073-.025.103-.037 2.284-.946 2.979-3.02 3-4.723.003-.24.188-.5.5-.5.528 0 1.463 1.061 1.463 2.374 0 1.185-.048 1.39-.463 2.626 5 0 4.965.072 5.406.188a.767.767 0 0 1 .594.766c0 .171-.005.146-.011.314zM2.25 13a.75.75 0 1 0 0 1.5.75.75 0 0 0 0-1.5zm0 1c-.138 0-.25-.113-.25-.25s.112-.25.25-.25.25.113.25.25-.112.25-.25.25z"/>
    </symbol>
    <symbol id="linkedin" viewBox="0 0 32 32">
      <path fill="#fff" d="M12 12h5.535v2.837h.079c.77-1.381 2.655-2.837 5.464-2.837C28.92 12 30 15.637 30 20.367V30h-5.769v-8.54c0-2.037-.042-4.657-3.001-4.657-3.005 0-3.463 2.218-3.463 4.509V30H12V12zM2 12h6v18H2V12zm6-5a3 3 0 1 1-6 0 3 3 0 0 1 6 0z"/>
    </symbol>
    <symbol id="logo" viewBox="0 0 33 35">
      <title>Polygon 1 + S</title><g fill="none" fill-rule="evenodd"><path d="M12.928 1.975c1.92-1.09 5.038-1.088 6.952 0l8.452 4.8c1.92 1.09 3.476 3.766 3.476 5.968v9.514c0 2.205-1.562 4.88-3.476 5.968l-8.452 4.8c-1.92 1.09-5.038 1.088-6.952 0l-8.452-4.8C2.556 27.134 1 24.459 1 22.257v-9.514c0-2.205 1.562-4.88 3.476-5.968l8.452-4.8z" stroke="#66E0E5" stroke-width="2"/><text transform="rotate(-47 16.79 15.85)" font-family="Montserrat-Regular, Montserrat" font-size="20" fill="#66E0E5"><tspan x="8.639" y="23.5">S</tspan></text></g>
    </symbol>
    <symbol id="pen" viewBox="0 0 32 32">
      <path fill="#fff" d="M31.818 9.122L22.879.183c-.292-.292-.676-.226-.855.146l-1.199 2.497 8.35 8.35 2.497-1.199c.372-.178.438-.563.146-.855zM19.231 4.231L11 4.917c-.547.068-1.002.184-1.159.899l-.001.002C7.608 16.539 0 27.001 0 27.001l1.793 1.793 8.5-8.5a3 3 0 1 1 1.414 1.414l-8.5 8.5L5 32.001s10.462-7.608 21.183-9.84l.002-.001c.714-.157.831-.612.898-1.159l.686-8.231-8.538-8.539z"/>
    </symbol>
    <symbol id="plyr" viewBox="0 0 100 100">
      
    </symbol>
    <symbol id="search" viewBox="0 0 16 16">
      <path fill="#fff" d="M15.504 13.616l-3.79-3.223c-.392-.353-.811-.514-1.149-.499a6 6 0 1 0-.672.672c-.016.338.146.757.499 1.149l3.223 3.79c.552.613 1.453.665 2.003.115s.498-1.452-.115-2.003zM6 10a4 4 0 1 1 0-8 4 4 0 0 1 0 8z"/>
    </symbol>
    <symbol id="trophy" viewBox="0 0 32 32">
      <path fill="#fff" d="M26 6V2H6v4H0v4a6 6 0 0 0 7.801 5.725A10.006 10.006 0 0 0 14 19.8V26h-2a4 4 0 0 0-4 4h16a4 4 0 0 0-4-4h-2v-6.2a10.006 10.006 0 0 0 6.199-4.075A6 6 0 0 0 32 10V6h-6zM6 13.625A3.629 3.629 0 0 1 2.375 10V8H6v2c0 1.256.232 2.457.655 3.565-.213.039-.431.06-.655.06zM29.625 10a3.629 3.629 0 0 1-4.28 3.565A9.968 9.968 0 0 0 26 10V8h3.625v2z"/>
    </symbol>
    <symbol id="twitter" viewBox="0 0 32 32">
      <path fill="#fff" d="M32 7.075a12.941 12.941 0 0 1-3.769 1.031 6.601 6.601 0 0 0 2.887-3.631 13.21 13.21 0 0 1-4.169 1.594A6.565 6.565 0 0 0 22.155 4a6.563 6.563 0 0 0-6.563 6.563c0 .512.056 1.012.169 1.494A18.635 18.635 0 0 1 2.23 5.195a6.56 6.56 0 0 0-.887 3.3 6.557 6.557 0 0 0 2.919 5.463 6.565 6.565 0 0 1-2.975-.819v.081a6.565 6.565 0 0 0 5.269 6.437 6.574 6.574 0 0 1-2.968.112 6.588 6.588 0 0 0 6.131 4.563 13.17 13.17 0 0 1-9.725 2.719 18.568 18.568 0 0 0 10.069 2.95c12.075 0 18.681-10.006 18.681-18.681 0-.287-.006-.569-.019-.85A13.216 13.216 0 0 0 32 7.076z"/>
    </symbol></svg>