<svg xmlns="http://www.w3.org/2000/svg" width="16" height="16" viewBox="0 0 16 16"><path fill="#fff" d="M14.597 2.632C12.782.834 9.881.797 8.002 2.488 6.122.796 3.222.834 1.406 2.632a4.709 4.709 0 0 0 0 6.707c.534.53 5.527 5.471 5.527 5.471a1.521 1.521 0 0 0 2.139 0l5.527-5.471a4.708 4.708 0 0 0-.001-6.707zm-.713 6.002l-5.527 5.471a.508.508 0 0 1-.713 0L2.117 8.634a3.721 3.721 0 0 1 0-5.295c1.422-1.407 3.708-1.457 5.205-.111l.678.61.678-.61c1.497-1.346 3.783-1.297 5.205.111a3.722 3.722 0 0 1 .001 5.295zM4.627 3.751a.25.25 0 0 1 0 .5c-.897 0-1.625.728-1.625 1.625a.25.25 0 0 1-.5 0c0-1.173.95-2.123 2.123-2.124l.002-.001z"/></svg>