<svg xmlns="http://www.w3.org/2000/svg" width="16" height="16" viewBox="0 0 16 16"><path fill="#fff" d="M11.002 0a5 5 0 0 0-5 5c0 .643.135 1.25.356 1.814L.284 12.888c-.175.176-.284.343-.284.611v1.5c0 .535.465 1 1 1h1.5c.268 0 .438-.107.613-.282l.717-.718h1.171a1 1 0 0 0 1-1v-1h1a1 1 0 0 0 1-1v-1.172l1.184-1.185a4.921 4.921 0 0 0 1.816.357 5 5 0 0 0 0-10zm0 9c-.74 0-1.426-.215-2.021-.566l-.172.171-1.515 1.515a.997.997 0 0 0-.293.707v1.172h-1a1 1 0 0 0-1 1v1H3.83a1 1 0 0 0-.707.293l-.709.709-1.413-.002L1 13.574l5.832-5.822v.001l.734-.734A3.96 3.96 0 0 1 7 4.999a4 4 0 1 1 4.001 4zm2.908-4.88a8.862 8.862 0 0 0-2.027-2.027.482.482 0 0 0-.441-.063 2.21 2.21 0 0 0-1.413 1.414.487.487 0 0 0 .064.44 8.882 8.882 0 0 0 2.027 2.027.485.485 0 0 0 .441.064 2.207 2.207 0 0 0 1.415-1.414.489.489 0 0 0-.064-.442zm-1.5 1.385a8.553 8.553 0 0 1-1.91-1.897 1.74 1.74 0 0 1 1.091-1.111 8.413 8.413 0 0 1 1.908 1.905 1.726 1.726 0 0 1-1.089 1.101z"/></svg>