<svg xmlns="http://www.w3.org/2000/svg" width="16" height="16" viewBox="0 0 16 16"><path fill="#fff" d="M14.582 5.236c-.625-.164-2.095-.162-4.244-.219.101-.469.125-.892.125-1.643C10.463 1.58 9.156 0 8 0a1.51 1.51 0 0 0-1.5 1.488c-.011 1.007-.322 2.746-2 3.628a17.44 17.44 0 0 1-.526.261L4 5.399c-.263-.226-.627-.4-1-.4H1.5c-.827 0-1.5.673-1.5 1.5v8c0 .827.673 1.5 1.5 1.5H3c.595 0 1.093-.36 1.334-.864a.14.14 0 0 0 .024.006l.12.031.023.006c.288.072.843.204 2.027.476.254.058 1.596.344 2.986.344h2.733c.833 0 1.434-.32 1.791-.964.005-.01.12-.235.214-.538a1.66 1.66 0 0 0 .011-.88c.537-.369.71-.927.822-1.29.188-.595.132-1.043.001-1.364.302-.285.559-.72.668-1.383a1.879 1.879 0 0 0-.194-1.186c.283-.318.412-.718.427-1.088l.006-.104c.004-.066.007-.106.007-.25 0-.631-.438-1.437-1.418-1.717zM3.5 14.5a.5.5 0 0 1-.5.5H1.5a.5.5 0 0 1-.5-.5v-8a.5.5 0 0 1 .5-.5H3a.5.5 0 0 1 .5.5v8zm11.489-7.232c-.01.247-.114.732-.989.732h-1a.25.25 0 1 0 0 .5h.969c.75 0 .848.622.8.922-.062.373-.237 1.078-1.082 1.078h-1.188a.25.25 0 0 0 0 .5h.985c.844 0 .77.643.649 1.027-.159.505-.257.973-1.321.973h-.816a.25.25 0 0 0 0 .5h.784c.547 0 .572.518.515.703-.063.203-.136.354-.139.361-.151.273-.395.437-.91.437H9.513c-1.373 0-2.735-.312-2.77-.319-2.077-.479-2.187-.515-2.317-.553 0 0-.423-.072-.423-.441L4 6.782c0-.234.149-.447.397-.521.031-.012.073-.025.103-.037 2.284-.946 2.979-3.02 3-4.723.003-.24.188-.5.5-.5.528 0 1.463 1.061 1.463 2.374 0 1.185-.048 1.39-.463 2.626 5 0 4.965.072 5.406.188a.767.767 0 0 1 .594.766c0 .171-.005.146-.011.314zM2.25 13a.75.75 0 1 0 0 1.5.75.75 0 0 0 0-1.5zm0 1c-.138 0-.25-.113-.25-.25s.112-.25.25-.25.25.113.25.25-.112.25-.25.25z"/></svg>